# xmcd
#
# Track frame offsets:
#	150
#	19146
#	42328
#	60640
#	77394
#	96716
#	125485
#	144479
#	166547
#	183269
#	224893
#	245149
#	257721
#	278897
#
# Disc length: 3952 seconds
#
# Revision: 3
# Processed by: cddbd v1.5.1PL2 Copyright (c) Steve Scherf et al.
# Submitted via: EasyCDDAExtractor 6.2.0.3
#
DISCID=ce0f6e0e
DTITLE=Francesco Guccini  - live collection(vol.1)
DYEAR=1998
DGENRE=Country
TTITLE0=Canzone per un'amica
TTITLE1=Canzone per Silvia
TTITLE2=Quello che non...
TTITLE3=Il vecchio e il bambino
TTITLE4=Quattro stracci
TTITLE5=Cirano
TTITLE6=Venezia
TTITLE7=Bologna
TTITLE8=Canzone quasi d'amore
TTITLE9=Via Paolo Fabbri 43
TTITLE10=Autogrill
TTITLE11=L'isola non trovata
TTITLE12=Asia
TTITLE13=Un altro giorno e` andato
EXTD=
EXTT0=
EXTT1=
EXTT2=
EXTT3=
EXTT4=
EXTT5=
EXTT6=
EXTT7=
EXTT8=
EXTT9=
EXTT10=
EXTT11=
EXTT12=
EXTT13=
PLAYORDER=
